<svg xmlns="http://www.w3.org/2000/svg" xmlns:xlink="http://www.w3.org/1999/xlink" width="500" zoomAndPan="magnify" viewBox="0 0 375 374.999991" height="500" preserveAspectRatio="xMidYMid meet" version="1.2"><defs><clipPath id="d895619d7d"><path d="M 122.09375 102.367188 L 250 102.367188 L 250 225.367188 L 122.09375 225.367188 Z M 122.09375 102.367188 "/></clipPath></defs><g id="a3ec0b6831"><rect x="0" width="375" y="0" height="374.999991" style="fill:#ffffff;fill-opacity:1;stroke:none;"/><rect x="0" width="375" y="0" height="374.999991" style="fill:#ffffff;fill-opacity:1;stroke:none;"/><g clip-rule="nonzero" clip-path="url(#d895619d7d)"><path style=" stroke:none;fill-rule:nonzero;fill:#5170ff;fill-opacity:1;" d="M 247.871094 136.144531 C 242.601562 115.714844 225.121094 102.554688 204.015625 102.542969 C 179.589844 102.523438 155.160156 102.535156 130.730469 102.535156 L 140.304688 119.398438 C 161.554688 119.359375 182.792969 119.367188 204.042969 119.386719 C 211.050781 119.386719 217.367188 121.445312 222.6875 126.113281 C 230.980469 133.375 233.496094 142.796875 232.394531 153.375 C 231.136719 165.621094 223.101562 175.90625 212.132812 178.535156 C 207.484375 179.660156 202.480469 179.21875 197.664062 179.699219 C 194.933594 179.984375 193.546875 178.847656 192.257812 176.574219 C 183.378906 160.949219 174.367188 145.398438 165.394531 129.832031 C 163.757812 126.988281 161.972656 126.957031 160.355469 129.75 C 157.972656 133.875 155.59375 138 153.210938 142.121094 C 143.148438 159.5625 133.082031 176.992188 123.035156 194.441406 C 122.726562 194.976562 122.519531 195.566406 122.097656 196.511719 L 124.828125 196.511719 C 143.714844 196.511719 162.605469 196.554688 181.492188 196.449219 C 182.867188 196.4375 183.820312 196.730469 184.597656 197.402344 C 185.089844 197.8125 185.5 198.367188 185.910156 199.089844 C 190.84375 207.808594 195.886719 216.464844 200.851562 225.175781 L 220.390625 225.175781 C 218.0625 221.125 215.828125 217.273438 213.609375 213.421875 C 210.453125 207.953125 207.3125 202.476562 204.199219 197.039062 C 204.574219 196.746094 204.691406 196.574219 204.828125 196.570312 C 205.390625 196.515625 205.972656 196.496094 206.550781 196.472656 C 215.1875 196.117188 223.011719 193.410156 230.117188 188.519531 C 247.660156 176.484375 252.589844 154.488281 247.871094 136.144531 Z M 151.171875 179.464844 C 155.078125 172.683594 158.84375 166.144531 162.832031 159.222656 C 165.078125 163.128906 167.25 166.902344 169.433594 170.703125 C 171.101562 173.589844 172.769531 176.496094 174.480469 179.464844 Z M 151.171875 179.464844 "/></g><g style="fill:#5170ff;fill-opacity:1;"><g transform="translate(107.947659, 264.788111)"><path style="stroke:none" d="M 15.578125 -3.875 L 7.40625 -3.875 L 6.09375 0 L 0.5 0 L 8.421875 -21.921875 L 14.609375 -21.921875 L 22.546875 0 L 16.890625 0 Z M 14.203125 -7.984375 L 11.484375 -16.015625 L 8.796875 -7.984375 Z M 14.203125 -7.984375 "/></g></g><g style="fill:#5170ff;fill-opacity:1;"><g transform="translate(128.363975, 264.788111)"><path style="stroke:none" d="M 7.28125 -14.953125 C 7.769531 -15.765625 8.484375 -16.421875 9.421875 -16.921875 C 10.359375 -17.421875 11.429688 -17.671875 12.640625 -17.671875 C 14.078125 -17.671875 15.378906 -17.304688 16.546875 -16.578125 C 17.710938 -15.847656 18.632812 -14.804688 19.3125 -13.453125 C 19.988281 -12.097656 20.328125 -10.523438 20.328125 -8.734375 C 20.328125 -6.953125 19.988281 -5.378906 19.3125 -4.015625 C 18.632812 -2.648438 17.710938 -1.597656 16.546875 -0.859375 C 15.378906 -0.117188 14.078125 0.25 12.640625 0.25 C 11.410156 0.25 10.335938 0.00390625 9.421875 -0.484375 C 8.503906 -0.972656 7.789062 -1.625 7.28125 -2.4375 L 7.28125 0 L 1.9375 0 L 1.9375 -23.109375 L 7.28125 -23.109375 Z M 14.890625 -8.734375 C 14.890625 -10.066406 14.519531 -11.113281 13.78125 -11.875 C 13.039062 -12.632812 12.128906 -13.015625 11.046875 -13.015625 C 9.984375 -13.015625 9.082031 -12.628906 8.34375 -11.859375 C 7.613281 -11.085938 7.25 -10.035156 7.25 -8.703125 C 7.25 -7.378906 7.613281 -6.332031 8.34375 -5.5625 C 9.082031 -4.789062 9.984375 -4.40625 11.046875 -4.40625 C 12.109375 -4.40625 13.015625 -4.796875 13.765625 -5.578125 C 14.515625 -6.359375 14.890625 -7.410156 14.890625 -8.734375 Z M 14.890625 -8.734375 "/></g></g><g style="fill:#5170ff;fill-opacity:1;"><g transform="translate(146.969606, 264.788111)"><path style="stroke:none" d="M 0.875 -8.734375 C 0.875 -10.523438 1.210938 -12.097656 1.890625 -13.453125 C 2.566406 -14.804688 3.488281 -15.847656 4.65625 -16.578125 C 5.820312 -17.304688 7.117188 -17.671875 8.546875 -17.671875 C 9.691406 -17.671875 10.738281 -17.429688 11.6875 -16.953125 C 12.632812 -16.472656 13.378906 -15.828125 13.921875 -15.015625 L 13.921875 -23.109375 L 19.265625 -23.109375 L 19.265625 0 L 13.921875 0 L 13.921875 -2.5 C 13.421875 -1.664062 12.707031 -1 11.78125 -0.5 C 10.851562 0 9.773438 0.25 8.546875 0.25 C 7.117188 0.25 5.820312 -0.117188 4.65625 -0.859375 C 3.488281 -1.597656 2.566406 -2.648438 1.890625 -4.015625 C 1.210938 -5.378906 0.875 -6.953125 0.875 -8.734375 Z M 13.921875 -8.703125 C 13.921875 -10.035156 13.550781 -11.085938 12.8125 -11.859375 C 12.070312 -12.628906 11.171875 -13.015625 10.109375 -13.015625 C 9.046875 -13.015625 8.144531 -12.632812 7.40625 -11.875 C 6.675781 -11.113281 6.3125 -10.066406 6.3125 -8.734375 C 6.3125 -7.410156 6.675781 -6.359375 7.40625 -5.578125 C 8.144531 -4.796875 9.046875 -4.40625 10.109375 -4.40625 C 11.171875 -4.40625 12.070312 -4.789062 12.8125 -5.5625 C 13.550781 -6.332031 13.921875 -7.378906 13.921875 -8.703125 Z M 13.921875 -8.703125 "/></g></g><g style="fill:#5170ff;fill-opacity:1;"><g transform="translate(165.575237, 264.788111)"><path style="stroke:none" d="M 18.359375 -8.984375 C 18.359375 -8.484375 18.328125 -7.96875 18.265625 -7.4375 L 6.1875 -7.4375 C 6.269531 -6.351562 6.613281 -5.523438 7.21875 -4.953125 C 7.832031 -4.378906 8.585938 -4.09375 9.484375 -4.09375 C 10.816406 -4.09375 11.742188 -4.65625 12.265625 -5.78125 L 17.953125 -5.78125 C 17.660156 -4.632812 17.132812 -3.601562 16.375 -2.6875 C 15.613281 -1.769531 14.660156 -1.050781 13.515625 -0.53125 C 12.367188 -0.0078125 11.085938 0.25 9.671875 0.25 C 7.972656 0.25 6.457031 -0.113281 5.125 -0.84375 C 3.789062 -1.570312 2.75 -2.613281 2 -3.96875 C 1.25 -5.320312 0.875 -6.898438 0.875 -8.703125 C 0.875 -10.515625 1.242188 -12.097656 1.984375 -13.453125 C 2.722656 -14.804688 3.757812 -15.847656 5.09375 -16.578125 C 6.425781 -17.304688 7.953125 -17.671875 9.671875 -17.671875 C 11.359375 -17.671875 12.859375 -17.316406 14.171875 -16.609375 C 15.484375 -15.898438 16.507812 -14.890625 17.25 -13.578125 C 17.988281 -12.265625 18.359375 -10.734375 18.359375 -8.984375 Z M 12.890625 -10.390625 C 12.890625 -11.304688 12.578125 -12.035156 11.953125 -12.578125 C 11.328125 -13.117188 10.546875 -13.390625 9.609375 -13.390625 C 8.710938 -13.390625 7.957031 -13.128906 7.34375 -12.609375 C 6.738281 -12.085938 6.363281 -11.347656 6.21875 -10.390625 Z M 12.890625 -10.390625 "/></g></g><g style="fill:#5170ff;fill-opacity:1;"><g transform="translate(182.214088, 264.788111)"><path style="stroke:none" d="M 18.359375 -8.984375 C 18.359375 -8.484375 18.328125 -7.96875 18.265625 -7.4375 L 6.1875 -7.4375 C 6.269531 -6.351562 6.613281 -5.523438 7.21875 -4.953125 C 7.832031 -4.378906 8.585938 -4.09375 9.484375 -4.09375 C 10.816406 -4.09375 11.742188 -4.65625 12.265625 -5.78125 L 17.953125 -5.78125 C 17.660156 -4.632812 17.132812 -3.601562 16.375 -2.6875 C 15.613281 -1.769531 14.660156 -1.050781 13.515625 -0.53125 C 12.367188 -0.0078125 11.085938 0.25 9.671875 0.25 C 7.972656 0.25 6.457031 -0.113281 5.125 -0.84375 C 3.789062 -1.570312 2.75 -2.613281 2 -3.96875 C 1.25 -5.320312 0.875 -6.898438 0.875 -8.703125 C 0.875 -10.515625 1.242188 -12.097656 1.984375 -13.453125 C 2.722656 -14.804688 3.757812 -15.847656 5.09375 -16.578125 C 6.425781 -17.304688 7.953125 -17.671875 9.671875 -17.671875 C 11.359375 -17.671875 12.859375 -17.316406 14.171875 -16.609375 C 15.484375 -15.898438 16.507812 -14.890625 17.25 -13.578125 C 17.988281 -12.265625 18.359375 -10.734375 18.359375 -8.984375 Z M 12.890625 -10.390625 C 12.890625 -11.304688 12.578125 -12.035156 11.953125 -12.578125 C 11.328125 -13.117188 10.546875 -13.390625 9.609375 -13.390625 C 8.710938 -13.390625 7.957031 -13.128906 7.34375 -12.609375 C 6.738281 -12.085938 6.363281 -11.347656 6.21875 -10.390625 Z M 12.890625 -10.390625 "/></g></g><g style="fill:#5170ff;fill-opacity:1;"><g transform="translate(198.852938, 264.788111)"><path style="stroke:none" d=""/></g></g><g style="fill:#5170ff;fill-opacity:1;"><g transform="translate(202.879404, 264.788111)"><path style="stroke:none" d="M 13.109375 0 L 8.546875 -8.265625 L 7.28125 -8.265625 L 7.28125 0 L 1.9375 0 L 1.9375 -21.921875 L 10.890625 -21.921875 C 12.617188 -21.921875 14.09375 -21.617188 15.3125 -21.015625 C 16.53125 -20.410156 17.441406 -19.582031 18.046875 -18.53125 C 18.648438 -17.476562 18.953125 -16.304688 18.953125 -15.015625 C 18.953125 -13.554688 18.539062 -12.253906 17.71875 -11.109375 C 16.894531 -9.960938 15.679688 -9.148438 14.078125 -8.671875 L 19.140625 0 Z M 7.28125 -12.046875 L 10.578125 -12.046875 C 11.554688 -12.046875 12.289062 -12.285156 12.78125 -12.765625 C 13.269531 -13.242188 13.515625 -13.921875 13.515625 -14.796875 C 13.515625 -15.628906 13.269531 -16.285156 12.78125 -16.765625 C 12.289062 -17.242188 11.554688 -17.484375 10.578125 -17.484375 L 7.28125 -17.484375 Z M 7.28125 -12.046875 "/></g></g><g style="fill:#5170ff;fill-opacity:1;"><g transform="translate(220.642121, 264.788111)"><path style="stroke:none" d="M 0.875 -8.734375 C 0.875 -10.523438 1.210938 -12.097656 1.890625 -13.453125 C 2.566406 -14.804688 3.488281 -15.847656 4.65625 -16.578125 C 5.820312 -17.304688 7.117188 -17.671875 8.546875 -17.671875 C 9.773438 -17.671875 10.851562 -17.421875 11.78125 -16.921875 C 12.707031 -16.421875 13.421875 -15.765625 13.921875 -14.953125 L 13.921875 -17.421875 L 19.265625 -17.421875 L 19.265625 0 L 13.921875 0 L 13.921875 -2.46875 C 13.398438 -1.65625 12.675781 -1 11.75 -0.5 C 10.820312 0 9.742188 0.25 8.515625 0.25 C 7.109375 0.25 5.820312 -0.117188 4.65625 -0.859375 C 3.488281 -1.597656 2.566406 -2.648438 1.890625 -4.015625 C 1.210938 -5.378906 0.875 -6.953125 0.875 -8.734375 Z M 13.921875 -8.703125 C 13.921875 -10.035156 13.550781 -11.085938 12.8125 -11.859375 C 12.070312 -12.628906 11.171875 -13.015625 10.109375 -13.015625 C 9.046875 -13.015625 8.144531 -12.632812 7.40625 -11.875 C 6.675781 -11.113281 6.3125 -10.066406 6.3125 -8.734375 C 6.3125 -7.410156 6.675781 -6.359375 7.40625 -5.578125 C 8.144531 -4.796875 9.046875 -4.40625 10.109375 -4.40625 C 11.171875 -4.40625 12.070312 -4.789062 12.8125 -5.5625 C 13.550781 -6.332031 13.921875 -7.378906 13.921875 -8.703125 Z M 13.921875 -8.703125 "/></g></g><g style="fill:#5170ff;fill-opacity:1;"><g transform="translate(239.247752, 264.788111)"><path style="stroke:none" d="M 4.59375 -19.234375 C 3.65625 -19.234375 2.890625 -19.507812 2.296875 -20.0625 C 1.703125 -20.613281 1.40625 -21.296875 1.40625 -22.109375 C 1.40625 -22.941406 1.703125 -23.628906 2.296875 -24.171875 C 2.890625 -24.722656 3.65625 -25 4.59375 -25 C 5.507812 -25 6.265625 -24.722656 6.859375 -24.171875 C 7.453125 -23.628906 7.75 -22.941406 7.75 -22.109375 C 7.75 -21.296875 7.453125 -20.613281 6.859375 -20.0625 C 6.265625 -19.507812 5.507812 -19.234375 4.59375 -19.234375 Z M 7.28125 2.25 C 7.28125 4.394531 6.738281 5.9375 5.65625 6.875 C 4.570312 7.820312 3.0625 8.296875 1.125 8.296875 L -0.96875 8.296875 L -0.96875 3.78125 L 0.3125 3.78125 C 0.894531 3.78125 1.3125 3.664062 1.5625 3.4375 C 1.8125 3.207031 1.9375 2.832031 1.9375 2.3125 L 1.9375 -17.421875 L 7.28125 -17.421875 Z M 7.28125 2.25 "/></g></g><g style="fill:#5170ff;fill-opacity:1;"><g transform="translate(245.834158, 264.788111)"><path style="stroke:none" d="M 0.875 -8.734375 C 0.875 -10.523438 1.210938 -12.097656 1.890625 -13.453125 C 2.566406 -14.804688 3.488281 -15.847656 4.65625 -16.578125 C 5.820312 -17.304688 7.117188 -17.671875 8.546875 -17.671875 C 9.773438 -17.671875 10.851562 -17.421875 11.78125 -16.921875 C 12.707031 -16.421875 13.421875 -15.765625 13.921875 -14.953125 L 13.921875 -17.421875 L 19.265625 -17.421875 L 19.265625 0 L 13.921875 0 L 13.921875 -2.46875 C 13.398438 -1.65625 12.675781 -1 11.75 -0.5 C 10.820312 0 9.742188 0.25 8.515625 0.25 C 7.109375 0.25 5.820312 -0.117188 4.65625 -0.859375 C 3.488281 -1.597656 2.566406 -2.648438 1.890625 -4.015625 C 1.210938 -5.378906 0.875 -6.953125 0.875 -8.734375 Z M 13.921875 -8.703125 C 13.921875 -10.035156 13.550781 -11.085938 12.8125 -11.859375 C 12.070312 -12.628906 11.171875 -13.015625 10.109375 -13.015625 C 9.046875 -13.015625 8.144531 -12.632812 7.40625 -11.875 C 6.675781 -11.113281 6.3125 -10.066406 6.3125 -8.734375 C 6.3125 -7.410156 6.675781 -6.359375 7.40625 -5.578125 C 8.144531 -4.796875 9.046875 -4.40625 10.109375 -4.40625 C 11.171875 -4.40625 12.070312 -4.789062 12.8125 -5.5625 C 13.550781 -6.332031 13.921875 -7.378906 13.921875 -8.703125 Z M 13.921875 -8.703125 "/></g></g></g></svg>